<?xml version="1.0" encoding="utf-8"?>
<!-- Generator: Adobe Illustrator 26.3.1, SVG Export Plug-In . SVG Version: 6.00 Build 0)  -->
<svg version="1.1" id="Layer_1" xmlns="http://www.w3.org/2000/svg" xmlns:xlink="http://www.w3.org/1999/xlink" x="0px" y="0px"
	 viewBox="0 0 469.6 78.7" style="enable-background:new 0 0 469.6 78.7;" xml:space="preserve">
<style type="text/css">
	.st0{fill:#676E9F;}
	.st1{fill:#FFFFFF;}
	.st2{fill:#57B6B2;}
</style>
<g>
	<g>
		<g>
			<path class="st0" d="M59.2,78.7c19.6,0,35.8-14.3,38.8-33C82.6,60.3,71.3,66.9,54.3,66.8C36.8,66.7,24.6,56,22.9,54.4
				C28.8,68.7,42.9,78.7,59.2,78.7z"/>
			<path class="st1" d="M89.3,31.2c0.1-0.2,0.2-0.4,0.4-0.6c0.7-1.3,1-2.8,1-4.3c0-5-4-9.1-8.9-9.1c-0.8,0-1.6,0.1-2.3,0.3
				c0.1,0.8,0.2,1.6,0.2,2.4c0,2.3-0.5,4.5-1.6,6.5c-0.2,0.3-0.3,0.6-0.5,0.9c-1.5,2.6-2.8,5.8-3.7,9c-0.7,2.5-1.2,5-1.5,7.3
				c1.1-2.2,2.4-3.6,3.7-3.6c2.4,0,4.6,4.5,5.8,9.4c0.9-0.3,1.7-0.5,2.6-0.8c0.1-2.9,0.6-6.1,1.6-9.3C86.8,36.3,88,33.5,89.3,31.2z"
				/>
			<path class="st1" d="M42.2,39.9c1.3,0,2.6,1.4,3.7,3.5c-0.3-2.3-0.8-4.7-1.5-7.2c-0.9-3.2-2.2-6.3-3.7-9
				c-0.2-0.3-0.4-0.6-0.5-0.9c-1-2-1.6-4.2-1.6-6.5c0-0.8,0.1-1.6,0.2-2.4c-0.7-0.2-1.5-0.3-2.3-0.3c-4.9,0-8.9,4.1-8.9,9.1
				c0,1.5,0.4,3,1,4.3c0.1,0.2,0.2,0.4,0.4,0.6c1.3,2.4,2.5,5.1,3.3,8c0.4,1.3,0.7,2.6,1,4c1,0.6,1.8,1,2.5,1.3
				c0.7,0.3,1.3,0.6,1.9,0.9C38.9,42.3,40.5,40,42.2,39.9z"/>
			<path class="st1" d="M71,35.4c1-3.5,2.4-6.8,4-9.7c0.2-0.2,0.3-0.5,0.4-0.8c0.8-1.6,1.3-3.4,1.3-5.1c0-0.4,0-0.7-0.1-1
				c-0.5-5.6-5.1-9.9-10.7-9.9c-1.5,0-2.9,0.3-4.2,0.9c-1.8,0.9-3.4,2.1-4.8,3.6c-1.5,1.5-2.8,3.4-3.8,5.4c-0.2,0.4-0.4,0.9-0.6,1.3
				c0.1-0.5,0.3-1,0.5-1.5c0.8-2.2,1.8-4.2,3-6c0.6-0.8,1.2-1.6,1.8-2.3c-1.6-1-3.5-1.5-5.5-1.5c-5.6,0-10.2,4.3-10.7,9.9
				c0,0.4-0.1,0.7-0.1,1.1c0,1.8,0.4,3.6,1.3,5.1c0.1,0.3,0.3,0.5,0.4,0.8c1.6,2.8,3,6.2,4,9.7c1.5,5,2.1,9.9,1.9,14.2
				c0.5,0.1,1,0.2,1.5,0.4c0.4,0.1,0.8,0.2,1.1,0.3c1.1-6.8,4.1-13.9,7.5-13.9c3.5,0,6.6,7.9,7.6,15l0.1,0.5c0.3,0,0.6,0,0.9,0
				c0.3,0,0.7,0,1,0c0.2,0,0.3,0,0.5,0c0.1,0,0.1,0,0.2,0l-0.1-0.6C68.8,46.5,69.4,41,71,35.4z"/>
			<path class="st2" d="M32.3,39.2c-0.8-2.9-2-5.7-3.3-8c-0.1-0.2-0.2-0.4-0.4-0.6c-0.7-1.3-1-2.8-1-4.3c0-5,4-9.1,8.9-9.1
				c0.8,0,1.5,0.1,2.3,0.3c-0.1,0.8-0.2,1.6-0.2,2.4c0,2.3,0.5,4.5,1.6,6.5c0.2,0.3,0.3,0.6,0.5,0.9c1.5,2.6,2.8,5.8,3.7,9
				c0.7,2.4,1.2,4.9,1.5,7.2c-1.1-2.1-2.3-3.5-3.7-3.5c-1.7,0-3.3,2.3-4.6,5.5c2.8,1.3,5.5,2.4,8.5,3.3c0.6,0.2,1.2,0.4,1.8,0.5
				c0.4,0.1,0.8,0.2,1.1,0.3c0.2-4.2-0.4-9.2-1.9-14.2c-1-3.5-2.4-6.8-4-9.7c-0.2-0.2-0.3-0.5-0.4-0.8c-0.8-1.6-1.3-3.4-1.3-5.1
				c0-0.4,0-0.7,0.1-1.1c0.5-5.5,5.1-9.9,10.7-9.9c2,0,3.8,0.5,5.5,1.5c-0.7,0.7-1.3,1.5-1.8,2.3c-1.2,1.8-2.2,3.8-3,6
				c-0.2,0.5-0.3,1-0.5,1.5c0.2-0.5,0.4-0.9,0.6-1.3c1-2.1,2.3-3.9,3.8-5.4c1.4-1.5,3.1-2.8,4.8-3.6c1.3-0.6,2.8-0.9,4.2-0.9
				c5.6,0,10.2,4.4,10.7,9.9c0,0.3,0.1,0.7,0.1,1c0,1.8-0.4,3.6-1.3,5.1c-0.1,0.3-0.3,0.5-0.4,0.8c-1.6,2.8-3,6.2-4,9.7
				c-1.6,5.6-2.3,11.1-1.8,15.7l0.1,0.6c0.2,0,0.4,0,0.5,0c0.8-0.1,1.6-0.2,2.4-0.3c0.9-0.1,1.8-0.2,2.7-0.4
				c0.9-0.2,1.9-0.3,2.8-0.5c0.9-0.2,1.9-0.4,2.8-0.7c0,0,0,0,0,0c0.4-0.1,0.8-0.2,1.2-0.3c-1.2-4.9-3.4-9.4-5.8-9.4
				c-1.4,0-2.7,1.5-3.7,3.6c0.3-2.4,0.8-4.8,1.5-7.3c0.9-3.2,2.2-6.3,3.7-9c0.2-0.3,0.4-0.6,0.5-0.9c1-2,1.6-4.2,1.6-6.5
				c0-0.8-0.1-1.6-0.2-2.4c0.8-0.2,1.5-0.3,2.3-0.3c4.9,0,8.9,4.1,8.9,9.1c0,1.5-0.4,3-1,4.3c-0.1,0.2-0.2,0.4-0.4,0.6
				c-1.3,2.4-2.5,5.1-3.3,8c-0.9,3.2-1.5,6.4-1.6,9.3c6.8-2.3,11.9-5.6,14.1-9c0-0.1,0-0.2,0-0.2C98.6,17.6,81,0,59.2,0
				C38.7,0,21.8,15.7,20.1,35.8c4.5,2,9.6,5.3,13.2,7.3C33,41.9,32.7,40.5,32.3,39.2z"/>
			<path class="st2" d="M59.1,36.3c-3.3,0-6.3,7.1-7.5,13.9c0.9,0.2,1.9,0.4,2.9,0.6c0.9,0.2,1.7,0.3,2.7,0.5
				c1.9,0.3,4.1,0.5,6.6,0.5c0.1,0,0.3,0,0.4,0c0.3,0,0.7,0,1,0c0.5,0,1,0,1.4,0c0,0,0.1,0,0.1,0l-0.1-0.5
				C65.7,44.1,62.6,36.3,59.1,36.3z"/>
		</g>
		<path class="st0" d="M0.6,38.9c0,0,6.3-4.4,17.2-0.4c6,2.2,14.4,7.9,17.9,9.6c6.6,3.1,12.6,5.4,21.5,6.7
			c5.6,0.9,15.1,1.4,27.8-2.8c0,0-10.7,9.4-23.8,10.8C50.5,64,37.1,63.2,19.9,48.4C14.6,43.8,7.6,38.8,0.6,38.9z"/>
	</g>
	<g>
		<path class="st0" d="M124.7,36.2c3.3-1,5-3,5-5.8c0-1.9-0.7-3.3-2.2-4.3c-1.4-1-3.5-1.5-6-1.5h-12.6v0.9l0.1,0
			c1.1,0.2,1.9,0.5,2.3,0.9c0.4,0.4,0.6,1.2,0.6,2.3V45c0,1-0.2,1.8-0.5,2.2c-0.4,0.5-1.1,0.8-2.3,1.1l-0.1,0v0.9h14.4
			c2.4,0,4.3-0.6,5.8-1.8c1.4-1.2,2.2-2.8,2.2-4.8C131.2,39.3,129,37.1,124.7,36.2z M117.4,37.4h2.7c1.7,0,3,0.5,3.9,1.4
			c0.9,0.9,1.4,2.2,1.4,3.8c0,1.6-0.4,2.8-1.2,3.7c-0.8,0.9-2,1.3-3.4,1.3c-1.2,0-2.1-0.2-2.6-0.7c-0.5-0.4-0.7-1.2-0.7-2.2V37.4z
			 M122.6,34.5c-0.8,0.8-2,1.3-3.5,1.3h-1.8v-9.6h1.4c3.4,0,5.1,1.6,5.1,4.8C123.9,32.5,123.4,33.7,122.6,34.5z"/>
		<path class="st0" d="M151.4,47.4c-0.3-0.4-0.4-1.1-0.4-2.1V32.6h-0.8l-6.4,0.6v0.9l0.1,0c1.5,0.3,2.3,1,2.3,2.2v7.8
			c-0.6,1-1.2,1.8-1.8,2.2c-0.5,0.4-1.2,0.6-1.9,0.6c-0.9,0-1.5-0.2-2-0.7c-0.5-0.5-0.7-1.1-0.7-1.9V32.6h-0.8l-6.4,0.6v0.9l0.1,0
			c0.9,0.2,1.5,0.4,1.8,0.8c0.3,0.4,0.5,1,0.5,1.8V45c0,1.5,0.5,2.8,1.4,3.6c0.9,0.9,2.2,1.3,3.8,1.3c2.4,0,4.4-1.2,6-3.7v3.7
			l7.3-0.7v-0.9l-0.1,0C152.3,48.1,151.7,47.8,151.4,47.4z"/>
		<path class="st0" d="M170.3,44.8c-0.9,1.1-1.7,1.9-2.4,2.3c-0.7,0.4-1.7,0.6-2.8,0.6c-1.7,0-3.1-0.6-4-1.8c-1-1.2-1.5-3-1.5-5.1
			c0-2.1,0.4-3.8,1.3-5c0.9-1.2,2.1-1.8,3.6-1.8c2.2,0,4.1,1.6,5.5,4.7l0,0.1h0.9l-0.3-5.9l0-0.1h-0.8l0,0c-0.4,0.3-0.7,0.5-1.1,0.5
			c-0.3,0-1-0.1-2-0.2c-1.2-0.2-2.2-0.3-3-0.3c-2.6,0-4.9,0.9-6.6,2.6c-1.8,1.7-2.7,3.9-2.7,6.4c0,2.5,0.8,4.5,2.4,6
			c1.6,1.5,3.7,2.3,6.3,2.3c4,0,6.8-1.7,8.3-5l0.1-0.2L170.3,44.8L170.3,44.8z"/>
		<path class="st0" d="M191.7,47.9c-0.4-0.2-0.8-0.6-1.3-1.1l-7.1-7.7l3.9-2.8c0.9-0.7,1.7-1.2,2.3-1.4c0.6-0.3,1.4-0.5,2.4-0.6
			l0.1,0v-0.9h-8.7v1h0.1c0.5,0,0.9,0.1,1.1,0.3c0.3,0.2,0.4,0.5,0.4,0.9c0,0.5-0.2,0.8-0.6,1.1l-5.2,3.9V22.8h-0.8l-6.2,0.4l-0.1,0
			v0.9l0.1,0c0.9,0.2,1.5,0.5,1.8,0.9c0.3,0.3,0.5,0.8,0.5,1.5v19.1c0,0.8-0.2,1.3-0.5,1.7c-0.3,0.4-0.9,0.7-1.7,0.9l-0.1,0v0.9h9.4
			v-0.9l-0.1,0c-1-0.3-1.6-0.7-1.9-1c-0.2-0.3-0.4-1-0.4-2.1v-3.3l6.8,7.3l0,0h7.1v-1l-0.1,0C192.5,48.3,192,48.1,191.7,47.9z"/>
		<path class="st0" d="M202.2,47.4c-0.3-0.4-0.5-1.1-0.5-2.1V22.8h-0.8l-6.9,0.5v0.9l0.1,0c1,0.1,1.8,0.3,2.2,0.7
			c0.4,0.4,0.6,1.2,0.6,2.3v18c0,1-0.2,1.7-0.6,2.1c-0.4,0.4-1.1,0.7-2.2,0.9l-0.1,0v0.9h10.4v-0.9l-0.1,0
			C203.2,48.1,202.5,47.8,202.2,47.4z"/>
		<path class="st0" d="M221.5,46.7c-0.1,0.9-0.5,1.4-1.1,1.4c-0.5,0-0.8-0.7-0.8-2v-7.4c0-1.9-0.6-3.4-1.9-4.4
			c-1.2-1.1-2.9-1.6-5-1.6c-1.8,0-3.3,0.5-4.5,1.4c-1.2,0.9-2,2.3-2.4,4l0,0.2h0.8l0-0.1c1-1.7,2.5-2.6,4.5-2.6
			c1.3,0,2.2,0.3,2.8,0.9c0.6,0.6,0.9,1.6,0.9,3c-0.6,0.2-1.5,0.5-2.8,0.9c-2.8,0.8-4.7,1.5-5.6,2.3c-0.9,0.8-1.4,1.8-1.4,2.9
			c0,1.2,0.5,2.2,1.4,3c0.9,0.8,2,1.2,3.3,1.2c1.9,0,3.5-0.6,4.9-1.9l0.2-0.2c0.4,0.7,0.8,1.3,1.4,1.6c0.6,0.4,1.4,0.5,2.3,0.5
			c1.1,0,2-0.3,2.7-0.8c0.7-0.6,1-1.3,1.1-2.4l0-0.1h-0.9L221.5,46.7z M210,45.2c0-1,0.3-1.8,0.9-2.4c0.6-0.6,1.9-1.3,3.8-2.2v5.7
			c-1,1-1.9,1.6-2.7,1.6c-0.6,0-1.1-0.2-1.4-0.7C210.2,46.7,210,46,210,45.2z"/>
		<path class="st0" d="M242.3,47.4c-0.3-0.4-0.5-1.1-0.5-2v-6.9c0-1.8-0.5-3.2-1.6-4.3c-1-1.1-2.4-1.6-3.9-1.6
			c-2.3,0-4.3,1.2-5.7,3.7v-3.7h-0.8l-6.6,0.6l-0.1,0v0.9l0.1,0c1,0.1,1.7,0.4,2.1,0.8c0.4,0.4,0.6,1,0.6,1.9v8.8
			c0,0.8-0.2,1.3-0.5,1.7c-0.3,0.4-0.9,0.7-1.8,0.9l-0.1,0v0.9h9.5v-0.9l-0.1,0c-0.8-0.3-1.4-0.6-1.7-1c-0.3-0.4-0.4-1-0.4-1.9v-7.3
			c0.9-1.8,2.2-2.7,3.7-2.7c0.9,0,1.5,0.3,2,0.9c0.5,0.6,0.7,1.5,0.7,2.7v6.5c0,0.8-0.2,1.4-0.5,1.8c-0.3,0.4-0.9,0.7-1.8,0.9
			l-0.1,0v0.9h9.6v-0.9l-0.1,0C243.2,48.1,242.6,47.8,242.3,47.4z"/>
		<path class="st0" d="M263.6,47.4c-0.3-0.4-0.5-1.3-0.5-2.5v-22h-0.8l-7.6,0.4l-0.1,0v1l0.1,0c1.4,0,2.3,0.3,2.9,0.7
			c0.5,0.4,0.8,1.1,0.8,2.2v7c-1.5-1-3.3-1.5-5.3-1.5c-2.4,0-4.4,0.8-5.9,2.3c-1.5,1.6-2.3,3.6-2.3,6.1c0,2.5,0.9,4.6,2.6,6
			c1.7,1.5,4.1,2.2,7.3,2.2h11.5v-0.9l-0.1,0C264.7,48.1,263.9,47.8,263.6,47.4z M255.6,48.1c-1.6,0-3-0.7-4-1.9
			c-1.1-1.3-1.6-3.1-1.6-5.4c0-2.1,0.4-3.7,1.1-5c0.7-1.2,1.7-1.8,3-1.8c1.6,0,3,0.8,4.2,2.5v8.1c0,1.3-0.2,2.2-0.6,2.7
			C257.3,47.8,256.6,48.1,255.6,48.1z"/>
		<path class="st0" d="M291.8,25.5L291.8,25.5c1.3,0.3,2,0.7,2.4,1.1c0.4,0.4,0.5,1.2,0.5,2.2v6.6h-11.1v-6.7c0-0.9,0.2-1.6,0.6-2.1
			c0.4-0.4,1.1-0.8,2.2-1.1l0.1,0v-0.9h-11.4v0.9l0.1,0c1.2,0.3,2,0.7,2.4,1.1c0.4,0.4,0.6,1.2,0.6,2.2v15.6c0,1.1-0.1,1.8-0.2,2.2
			c-0.2,0.4-0.4,0.7-0.8,0.9c-0.4,0.3-1,0.5-1.9,0.7l-0.1,0v0.9h11.4v-0.9l-0.1,0c-1.2-0.3-1.9-0.7-2.3-1.1
			c-0.3-0.4-0.5-1.2-0.5-2.2v-7.6h11.1v7.1c0,1.4-0.2,2.3-0.6,2.8c-0.4,0.4-1.2,0.8-2.3,1.1l-0.1,0v0.9h11.4v-0.9l-0.1,0
			c-1.2-0.3-2-0.7-2.4-1.1c-0.4-0.4-0.5-1.2-0.5-2.2V29.4c0-1.4,0.2-2.3,0.5-2.7c0.3-0.4,1.2-0.8,2.4-1.1l0.1,0v-0.9h-11.4V25.5z"/>
		<path class="st0" d="M310,28.6c0.8,0,1.4-0.3,1.9-0.8c0.5-0.6,0.8-1.2,0.8-2c0-0.8-0.3-1.5-0.8-2c-0.5-0.5-1.2-0.8-1.9-0.8
			c-0.8,0-1.4,0.3-2,0.8c-0.5,0.6-0.8,1.2-0.8,2c0,0.8,0.3,1.5,0.8,2C308.6,28.3,309.2,28.6,310,28.6z"/>
		<path class="st0" d="M312.4,45.8V32.6h-0.8l-6.6,0.6l-0.1,0v0.9l0.1,0c1.1,0.2,1.8,0.5,2.1,0.9c0.3,0.4,0.5,1,0.5,1.9v8.4
			c0,1-0.2,1.7-0.5,2c-0.3,0.4-1,0.7-2,0.9l-0.1,0v0.9h9.8v-0.9l-0.1,0C313.2,48.1,312.4,47.3,312.4,45.8z"/>
		<path class="st0" d="M323.9,47.4c-0.3-0.4-0.5-1.1-0.5-2.1V22.8h-0.8l-6.9,0.5v0.9l0.1,0c1,0.1,1.8,0.3,2.2,0.7
			c0.4,0.4,0.6,1.2,0.6,2.3v18c0,1-0.2,1.7-0.6,2.1c-0.4,0.4-1.1,0.7-2.2,0.9l-0.1,0v0.9h10.4v-0.9l-0.1,0
			C325,48.1,324.3,47.8,323.9,47.4z"/>
		<path class="st0" d="M335.1,47.4c-0.3-0.4-0.5-1.1-0.5-2.1V22.8h-0.8l-6.9,0.5v0.9l0.1,0c1,0.1,1.8,0.3,2.2,0.7
			c0.4,0.4,0.6,1.2,0.6,2.3v18c0,1-0.2,1.7-0.6,2.1c-0.4,0.4-1.1,0.7-2.2,0.9l-0.1,0v0.9h10.4v-0.9l-0.1,0
			C336.1,48.1,335.4,47.8,335.1,47.4z"/>
		<path class="st0" d="M345.2,38.2c-1.4-0.5-2.3-1-2.7-1.4c-0.4-0.4-0.6-0.8-0.6-1.2c0-0.5,0.2-0.8,0.7-1.2c0.5-0.3,1.1-0.5,1.7-0.5
			c1,0,1.9,0.3,2.7,1c0.8,0.7,1.4,1.6,1.9,2.8l0,0.1h0.9v-5.2H349l0,0c-0.4,0.4-0.7,0.4-0.8,0.4c-0.1,0-0.4,0-1-0.1
			c-1.4-0.2-2.5-0.3-3-0.3c-1.6,0-2.9,0.5-3.9,1.4c-1,0.9-1.5,2.1-1.5,3.5c0,1.2,0.3,2.2,1,3c0.7,0.8,2.1,1.6,4.1,2.5
			c1.6,0.6,2.6,1.2,3.1,1.7c0.5,0.5,0.7,1,0.7,1.7c0,0.6-0.3,1.1-0.8,1.5c-0.5,0.4-1.1,0.6-1.8,0.6c-2.1,0-3.9-1.6-5.4-4.9l0-0.1
			h-0.9v6.3h0.9l0,0c0.3-0.3,0.7-0.5,1.3-0.5c0.3,0,0.9,0.1,1.7,0.3c0.8,0.2,1.7,0.3,2.5,0.3c1.4,0,2.8-0.5,3.9-1.6
			c1.1-1.1,1.7-2.4,1.7-4c0-1.3-0.4-2.5-1.1-3.4C348.9,40,347.4,39.1,345.2,38.2z"/>
		<path class="st0" d="M372.1,24.6h-12.2v0.9l0.1,0c1.2,0.3,2,0.7,2.4,1.1c0.4,0.4,0.5,1.2,0.5,2.2v15.6c0,1.4-0.2,2.3-0.5,2.7
			c-0.4,0.4-1.2,0.8-2.4,1.1l-0.1,0v0.9h13.8c3.9,0,7-1.1,9.3-3.3c2.3-2.2,3.5-5.1,3.5-8.8c0-3.8-1.3-6.9-3.9-9.2
			C380.1,25.7,376.5,24.6,372.1,24.6z M368.4,26.2h3c2.9,0,5.2,1,6.8,2.9c1.6,1.9,2.4,4.6,2.4,7.9c0,3.4-0.7,6-2.2,7.9
			c-1.5,1.8-3.6,2.8-6.3,2.8c-1.3,0-2.3-0.2-2.9-0.6c-0.6-0.4-0.8-1.1-0.8-2.1V26.2z"/>
		<path class="st0" d="M404.2,44.2c-1.4,2.2-3.2,3.4-5.4,3.4c-1.5,0-2.8-0.7-3.8-2c-1-1.3-1.5-3-1.5-5.1c0-0.2,0-0.4,0-0.5h11.6
			l0-0.1c-0.3-2.2-1.2-4-2.6-5.3c-1.5-1.3-3.3-2-5.5-2c-2.4,0-4.5,0.8-6.1,2.5c-1.6,1.7-2.5,3.8-2.5,6.2c0,2.4,0.8,4.5,2.4,6.1
			c1.6,1.6,3.6,2.4,6,2.4c1.8,0,3.5-0.5,5-1.5c1.5-1,2.6-2.4,3.3-4.1l0.1-0.2L404.2,44.2L404.2,44.2z M394.5,35.3
			c0.6-0.9,1.3-1.3,2.2-1.3c0.9,0,1.6,0.4,2.2,1.3c0.6,0.9,1,2,1.1,3.4h-6.4C393.6,37.3,394,36.2,394.5,35.3z"/>
		<path class="st0" d="M425.3,47.4c-0.3-0.4-0.5-1.1-0.5-2v-6.9c0-1.8-0.5-3.2-1.6-4.3c-1-1.1-2.3-1.6-3.9-1.6
			c-2.3,0-4.3,1.2-5.7,3.7v-3.7h-0.8l-6.6,0.6l-0.1,0v0.9l0.1,0c1,0.1,1.7,0.4,2.1,0.8c0.4,0.4,0.6,1,0.6,1.9v8.8
			c0,0.8-0.2,1.3-0.5,1.7c-0.3,0.4-0.9,0.7-1.8,0.9l-0.1,0v0.9h9.5v-0.9l-0.1,0c-0.8-0.3-1.4-0.6-1.7-1c-0.3-0.4-0.4-1-0.4-1.9v-7.3
			c0.9-1.8,2.2-2.7,3.7-2.7c0.9,0,1.5,0.3,2,0.9c0.5,0.6,0.7,1.5,0.7,2.7v6.5c0,0.8-0.2,1.4-0.5,1.8c-0.3,0.4-0.9,0.7-1.8,0.9
			l-0.1,0v0.9h9.6v-0.9l-0.1,0C426.2,48.1,425.6,47.8,425.3,47.4z"/>
		<path class="st0" d="M439.1,46.4c-0.7,0.8-1.4,1.2-2.1,1.2c-0.9,0-1.6-0.3-2-0.9c-0.4-0.6-0.6-1.6-0.6-3v-9h5v-1.5h-5v-6.1h-1l0,0
			c-2.3,3.1-4.5,5.2-6.5,6.5l-0.1,0v1h2.7v10c0,1.6,0.5,2.9,1.4,3.8c0.9,0.9,2.2,1.3,3.9,1.3c2.2,0,3.9-1,5-2.9l0-0.1l-0.6-0.6
			L439.1,46.4z"/>
		<path class="st0" d="M457.2,46.7c-0.1,0.9-0.5,1.4-1.1,1.4c-0.5,0-0.8-0.7-0.8-2v-7.4c0-1.9-0.6-3.4-1.9-4.4
			c-1.2-1.1-2.9-1.6-5-1.6c-1.8,0-3.3,0.5-4.5,1.4c-1.2,0.9-2,2.3-2.4,4l0,0.2h0.8l0-0.1c1-1.7,2.5-2.6,4.5-2.6
			c1.3,0,2.2,0.3,2.8,0.9c0.6,0.6,0.9,1.6,0.9,3c-0.6,0.2-1.5,0.5-2.8,0.9c-2.8,0.8-4.7,1.5-5.6,2.3c-0.9,0.8-1.4,1.8-1.4,2.9
			c0,1.2,0.5,2.2,1.4,3c0.9,0.8,2,1.2,3.3,1.2c1.9,0,3.5-0.6,4.9-1.9l0.2-0.2c0.4,0.7,0.8,1.3,1.4,1.6c0.6,0.4,1.4,0.5,2.3,0.5
			c1.1,0,2-0.3,2.7-0.8c0.7-0.6,1-1.3,1.1-2.4l0-0.1h-0.9L457.2,46.7z M445.8,45.2c0-1,0.3-1.8,0.9-2.4c0.6-0.6,1.9-1.3,3.8-2.2v5.7
			c-1,1-1.9,1.6-2.7,1.6c-0.6,0-1.1-0.2-1.4-0.7C445.9,46.7,445.8,46,445.8,45.2z"/>
		<path class="st0" d="M469.5,48.3c-1.1-0.3-1.8-0.6-2.1-0.9c-0.3-0.4-0.5-1.1-0.5-2.1V22.8H466l-6.9,0.5v0.9l0.1,0
			c1,0.1,1.8,0.3,2.2,0.7c0.4,0.4,0.6,1.2,0.6,2.3v18c0,1-0.2,1.7-0.6,2.1c-0.4,0.4-1.1,0.7-2.2,0.9l-0.1,0v0.9h10.4L469.5,48.3
			L469.5,48.3z"/>
	</g>
</g>
</svg>
