<?xml version="1.0" encoding="utf-8"?>
<!-- Generator: Adobe Illustrator 25.4.1, SVG Export Plug-In . SVG Version: 6.00 Build 0)  -->
<svg version="1.1" id="Capa_1" xmlns="http://www.w3.org/2000/svg" xmlns:xlink="http://www.w3.org/1999/xlink" x="0px" y="0px"
	 viewBox="0 0 512 512" style="enable-background:new 0 0 512 512;" xml:space="preserve">
<style type="text/css">
	.st0{fill:#57B6B2;}
	.st1{fill:#F2F2F2;}
	.st2{fill:#7A80AA;}
	.st3{fill:#F0F0F0;}
	.st4{fill:#E6E6E6;}
	.st5{fill:#CFCFCF;}
	.st6{fill:#DEDEDE;}
	.st7{fill:#585D7E;}
</style>
<path d="M476.7,432.6h-70.6c-4.9,0-8.8-3.9-8.8-8.8v-70.6c0-4.9,3.9-8.8,8.8-8.8h70.6c4.9,0,8.8,3.9,8.8,8.8v70.6
	C485.5,428.6,481.6,432.6,476.7,432.6z M414.9,414.9h53v-53h-53V414.9z"/>
<path class="st0" d="M247.2,35.3h229.5c19.5,0,35.3,15.8,35.3,35.3v353.1c0,19.5-15.8,35.3-35.3,35.3H247.2
	c-19.5,0-35.3-15.8-35.3-35.3V70.6C211.9,51.1,227.7,35.3,247.2,35.3z"/>
<polygon class="st1" points="406.1,423.7 247.2,423.7 247.2,70.6 476.7,70.6 476.7,353.1 "/>
<path class="st2" d="M414.9,35.3h-26.5v-8.8c0-14.6-11.9-26.5-26.5-26.5l0,0c-14.6,0-26.5,11.9-26.5,26.5v8.8H309l-26.5,70.6h158.9
	L414.9,35.3z"/>
<path class="st3" d="M247.2,368v55.7h158.9l70.6-70.6V116.7C410,258.3,318.9,331,247.2,368z"/>
<polygon class="st2" points="406.1,423.7 406.1,353.1 476.7,353.1 "/>
<path class="st4" d="M102.1,164.8L102.1,164.8c-9.1-3.9-18.9-5.9-28.8-5.9l0,0C32.8,158.9,0,191.7,0,232.2l0,0
	c0,33.1,7.7,65.7,22.5,95.3l12.8,25.6l15.2,136.5c1.4,12.7,12.2,22.4,25,22.4l0,0c12.4,0,23-9.1,24.9-21.4l19.3-129
	c2.3-15.1,15.2-26.2,30.4-26.2l0,0c15.2,0,28.2,11.1,30.4,26.2l19.3,129c1.8,12.3,12.4,21.4,24.9,21.4l0,0c12.8,0,23.6-9.6,25-22.4
	l15.2-136.5l12.8-25.6c14.8-29.6,22.5-62.2,22.5-95.3l0,0c0-40.5-32.8-73.3-73.3-73.3l0,0c-9.9,0-19.7,2-28.8,5.9l0,0
	C167.4,177.9,132.7,177.9,102.1,164.8z"/>
<path class="st1" d="M44.1,256H26.5v-12.3c0-22.8,11.4-44.2,30.4-56.8l9.8,14.7c-14.1,9.4-22.6,25.2-22.6,42.1L44.1,256L44.1,256z"
	/>
<g>
	<rect x="326.6" y="203" class="st5" width="114.8" height="17.7"/>
	<rect x="326.6" y="256" class="st5" width="114.8" height="17.7"/>
	<rect x="326.6" y="309" class="st5" width="114.8" height="17.7"/>
	<rect x="300.1" y="150.1" class="st5" width="141.2" height="17.7"/>
	<rect x="326.6" y="361.9" class="st5" width="53" height="17.7"/>
</g>
<g>
	<path class="st6" d="M50.5,489.6c1.5,13.8,14,23.7,27.8,22.2c11.3-1.3,20.4-10,22.1-21.2l18.2-121.4C93.3,380.5,67,389,40,394.5
		L50.5,489.6z"/>
	<path class="st6" d="M168.5,341.7c6.4,4.8,10.7,12,12,19.9l19.3,129c2.1,13.7,14.9,23.2,28.6,21.1c11.3-1.7,20-10.8,21.2-22.1
		l15.2-136.5l12.8-25.6c14.8-29.6,22.5-62.2,22.5-95.3l0,0c0-10.7-2.4-21.2-6.9-30.9C264.5,258.1,221.5,306.5,168.5,341.7z"/>
</g>
<polygon class="st7" points="289.8,86.5 282.5,105.9 441.4,105.9 420.3,49.8 "/>
</svg>
