<?xml version="1.0" encoding="utf-8"?>
<!-- Generator: Adobe Illustrator 25.4.1, SVG Export Plug-In . SVG Version: 6.00 Build 0)  -->
<svg version="1.1" id="Capa_1" xmlns="http://www.w3.org/2000/svg" xmlns:xlink="http://www.w3.org/1999/xlink" x="0px" y="0px"
	 viewBox="0 0 512 512" style="enable-background:new 0 0 512 512;" xml:space="preserve">
<style type="text/css">
	.st0{fill:#7A80AA;}
	.st1{fill:#585D7E;}
	.st2{fill:#D7ECEB;}
	.st3{fill:#57B6B2;}
</style>
<polygon class="st0" points="94.1,34.6 17.5,9.1 8.9,26.1 60,51.7 43,145.4 26,469.1 60,503.2 94.1,469.1 77.1,145.4 "/>
<g>
	<polygon class="st1" points="79.3,188 40.8,188 39.9,205 80.2,205 	"/>
	<polygon class="st1" points="81.1,222.1 39,222.1 38.1,239.1 82,239.1 	"/>
	<polygon class="st1" points="82.9,256.1 37.2,256.1 36.3,273.2 83.8,273.2 	"/>
	<polygon class="st1" points="35.4,290.2 34.5,307.3 85.6,307.3 84.7,290.2 	"/>
	<polygon class="st1" points="32.7,341.3 87.4,341.3 86.5,324.3 33.6,324.3 	"/>
	<polygon class="st1" points="30.9,375.4 89.2,375.4 88.3,358.4 31.8,358.4 	"/>
</g>
<rect x="153.8" y="102.8" class="st2" width="34.1" height="306.7"/>
<g>
	<path class="st0" d="M179.3,102.8h-17V60.2c0-2.3,0.9-4.4,2.5-6l18.6-18.6l-26.2-19.7l10.2-13.6l34.1,25.6
		c3.8,2.8,4.5,8.2,1.7,11.9c-0.2,0.3-0.5,0.6-0.8,0.9l-23.1,23.1L179.3,102.8L179.3,102.8z"/>
	<path class="st0" d="M179.3,511.7h-25.7c-18.7,0-33.9-15.2-33.9-33.9c0-13.9,8.4-26.4,21.3-31.5l21.3-8.5v-28.3h17v34.1
		c0,3.5-2.1,6.6-5.4,7.9l-26.6,10.6c-8.7,3.5-12.9,13.3-9.4,21.9c2.6,6.4,8.8,10.6,15.7,10.6h25.7L179.3,511.7L179.3,511.7z"/>
</g>
<g>
	<rect x="153.8" y="136.9" class="st3" width="34.1" height="17"/>
	<rect x="153.8" y="358.4" class="st3" width="34.1" height="17"/>
</g>
<ellipse transform="matrix(0.9283 -0.3717 0.3717 0.9283 6.8207 172.92)" class="st2" cx="451.9" cy="68.8" rx="49.3" ry="61.1"/>
<rect x="460.5" y="213.6" class="st0" width="34.1" height="289.7"/>
<rect x="460.5" y="239.1" class="st1" width="34.1" height="17"/>
<path class="st3" d="M495.4,45.2c-3.6-7.4-8.4-14.1-14.3-19.8l-63.6,80.9c13.8,16.9,33.7,25.1,51.5,20.9v86.4h17v-95.1
	C504.1,102.9,508.7,72.2,495.4,45.2z"/>
<path class="st3" d="M382.6,410.1l-41.5-257.5c-0.3-2.2-1.5-4.1-3.3-5.5l-30.4-22.8l8.2-123.2l-17-1.1l-8.5,127.8
	c-0.2,2.9,1.1,5.7,3.4,7.4l31.3,23.5l40.6,251.8c-27.8,5.4-46,32.2-40.6,60c5.4,27.8,32.2,46,60,40.6c27.8-5.4,46-32.2,40.6-60
	C421.3,429.7,404.1,413.2,382.6,410.1z M375.3,494.7c-18.8,0-34.1-15.3-34.1-34.1s15.3-34.1,34.1-34.1s34.1,15.3,34.1,34.1
	C409.3,479.4,394.1,494.7,375.3,494.7z"/>
<path class="st0" d="M341.2,127.8L332.7,0l-17,1.1l8.2,123.2l-30.4,22.8c-1.8,1.3-2.9,3.3-3.3,5.5L248.7,410
	c-24.8,3.6-43.8,24.8-43.8,50.6c0,28.2,22.9,51.1,51.1,51.1c25.3,0,46.3-18.4,50.4-42.6h17.8v-17h-17.8c-3.5-21-19.8-37.6-40.6-41.7
	l40.6-251.8l31.3-23.5C340.1,133.4,341.4,130.7,341.2,127.8z M290.1,460.6c0,18.8-15.3,34.1-34.1,34.1c-18.8,0-34.1-15.3-34.1-34.1
	c0-18.8,15.3-34.1,34.1-34.1C274.8,426.5,290.1,441.8,290.1,460.6z"/>
<g>
	<rect x="162.3" y="85.8" class="st1" width="17" height="17"/>
	<rect x="162.3" y="409.5" class="st1" width="17" height="17"/>
</g>
</svg>
