<?xml version="1.0" encoding="utf-8"?>
<!-- Generator: Adobe Illustrator 25.4.1, SVG Export Plug-In . SVG Version: 6.00 Build 0)  -->
<svg version="1.1" id="Layer_1" xmlns="http://www.w3.org/2000/svg" xmlns:xlink="http://www.w3.org/1999/xlink" x="0px" y="0px"
	 viewBox="0 0 599 599" style="enable-background:new 0 0 599 599;" xml:space="preserve">
<style type="text/css">
	.st0{fill:#57B6B2;}
	.st1{fill:#585D7E;}
	.st2{fill:#D7ECEB;}
	.st3{fill:#7A80AA;}
</style>
<path class="st0" d="M454.2,217.1V62.3c0-34.2-27.7-61.9-61.9-61.9H61.9C27.7,0.3,0,28,0,62.3v206.4c0,34.2,27.7,61.9,61.9,61.9
	h51.6v82.6l82.6-82.6h196.1c34.2,0,61.9-27.7,61.9-61.9L454.2,217.1L454.2,217.1z"/>
<path class="st1" d="M536.8,248H309.7c-34.2,0-61.9,27.7-61.9,61.9v144.5c0,34.2,27.7,61.9,61.9,61.9h113.5l82.6,82.6v-82.6h31
	c34.2,0,61.9-27.7,61.9-61.9V310C598.7,275.8,571,248,536.8,248z"/>
<path class="st2" d="M72.3,72.6h206.4v20.6H72.3V72.6z"/>
<path class="st2" d="M320,72.6h61.9v20.6H320V72.6z"/>
<path class="st2" d="M72.3,134.5h309.7v20.6H72.3V134.5z"/>
<path class="st2" d="M216.8,196.4h165.2v20.6H216.8V196.4z"/>
<path class="st2" d="M72.3,196.4h103.2v20.6H72.3V196.4z"/>
<path class="st2" d="M72.3,258.4h144.5V279H72.3V258.4z"/>
<path class="st3" d="M299.3,310h144.5v20.6H299.3V310z"/>
<path class="st3" d="M485.1,310h61.9v20.6h-61.9V310z"/>
<path class="st3" d="M299.3,371.9h247.7v20.6H299.3V371.9z"/>
<path class="st3" d="M299.3,433.8h247.7v20.6H299.3V433.8z"/>
</svg>
